<mxfile host="app.diagrams.net" modified="2024-02-09T15:21:42.523Z" agent="Mozilla/5.0 (Windows NT 10.0; Win64; x64) AppleWebKit/537.36 (KHTML, like Gecko) Chrome/121.0.0.0 Safari/537.36" etag="vW-P7cumxKiJyAkCoGwD" version="23.1.2" type="google" pages="2">
  <diagram id="a0O62-Z0iMwUB0_WcsaU" name="Page-2">
    <mxGraphModel grid="1" page="1" gridSize="10" guides="1" tooltips="1" connect="1" arrows="1" fold="1" pageScale="1" pageWidth="850" pageHeight="1100" math="0" shadow="0">
      <root>
        <mxCell id="0" />
        <mxCell id="1" parent="0" />
        <mxCell id="EiGpjucp3zHQasyni4w2-1" value="TravelPackage" style="swimlane;fontStyle=1;align=center;verticalAlign=top;childLayout=stackLayout;horizontal=1;startSize=26.523810250418528;horizontalStack=0;resizeParent=1;resizeParentMax=0;resizeLast=0;collapsible=0;marginBottom=0;" vertex="1" parent="1">
          <mxGeometry x="74" y="20" width="200" height="142.52381025041853" as="geometry" />
        </mxCell>
        <mxCell id="EiGpjucp3zHQasyni4w2-2" value="-String name" style="text;strokeColor=none;fillColor=none;align=left;verticalAlign=top;spacingLeft=4;spacingRight=4;overflow=hidden;rotatable=0;points=[[0,0.5],[1,0.5]];portConstraint=eastwest;" vertex="1" parent="EiGpjucp3zHQasyni4w2-1">
          <mxGeometry y="26.523810250418528" width="200" height="27" as="geometry" />
        </mxCell>
        <mxCell id="EiGpjucp3zHQasyni4w2-3" value="-int capacity" style="text;strokeColor=none;fillColor=none;align=left;verticalAlign=top;spacingLeft=4;spacingRight=4;overflow=hidden;rotatable=0;points=[[0,0.5],[1,0.5]];portConstraint=eastwest;" vertex="1" parent="EiGpjucp3zHQasyni4w2-1">
          <mxGeometry y="53.52381025041853" width="200" height="27" as="geometry" />
        </mxCell>
        <mxCell id="EiGpjucp3zHQasyni4w2-4" value="-List itinerary" style="text;strokeColor=none;fillColor=none;align=left;verticalAlign=top;spacingLeft=4;spacingRight=4;overflow=hidden;rotatable=0;points=[[0,0.5],[1,0.5]];portConstraint=eastwest;" vertex="1" parent="EiGpjucp3zHQasyni4w2-1">
          <mxGeometry y="80.52381025041853" width="200" height="27" as="geometry" />
        </mxCell>
        <mxCell id="EiGpjucp3zHQasyni4w2-5" value="-List passengers" style="text;strokeColor=none;fillColor=none;align=left;verticalAlign=top;spacingLeft=4;spacingRight=4;overflow=hidden;rotatable=0;points=[[0,0.5],[1,0.5]];portConstraint=eastwest;" vertex="1" parent="EiGpjucp3zHQasyni4w2-1">
          <mxGeometry y="107.52381025041853" width="200" height="27" as="geometry" />
        </mxCell>
        <mxCell id="EiGpjucp3zHQasyni4w2-6" style="line;strokeWidth=1;fillColor=none;align=left;verticalAlign=middle;spacingTop=-1;spacingLeft=3;spacingRight=3;rotatable=0;labelPosition=right;points=[];portConstraint=eastwest;strokeColor=inherit;" vertex="1" parent="EiGpjucp3zHQasyni4w2-1">
          <mxGeometry y="134.52381025041853" width="200" height="8" as="geometry" />
        </mxCell>
        <mxCell id="EiGpjucp3zHQasyni4w2-9" value="Destination" style="swimlane;fontStyle=1;align=center;verticalAlign=top;childLayout=stackLayout;horizontal=1;startSize=27.142857142857142;horizontalStack=0;resizeParent=1;resizeParentMax=0;resizeLast=0;collapsible=0;marginBottom=0;" vertex="1" parent="1">
          <mxGeometry x="206" y="264" width="117" height="95.14285714285714" as="geometry" />
        </mxCell>
        <mxCell id="EiGpjucp3zHQasyni4w2-10" value="-String name" style="text;strokeColor=none;fillColor=none;align=left;verticalAlign=top;spacingLeft=4;spacingRight=4;overflow=hidden;rotatable=0;points=[[0,0.5],[1,0.5]];portConstraint=eastwest;" vertex="1" parent="EiGpjucp3zHQasyni4w2-9">
          <mxGeometry y="27.142857142857142" width="117" height="27" as="geometry" />
        </mxCell>
        <mxCell id="EiGpjucp3zHQasyni4w2-11" value="-List activities" style="text;strokeColor=none;fillColor=none;align=left;verticalAlign=top;spacingLeft=4;spacingRight=4;overflow=hidden;rotatable=0;points=[[0,0.5],[1,0.5]];portConstraint=eastwest;" vertex="1" parent="EiGpjucp3zHQasyni4w2-9">
          <mxGeometry y="54.14285714285714" width="117" height="27" as="geometry" />
        </mxCell>
        <mxCell id="EiGpjucp3zHQasyni4w2-12" style="line;strokeWidth=1;fillColor=none;align=left;verticalAlign=middle;spacingTop=-1;spacingLeft=3;spacingRight=3;rotatable=0;labelPosition=right;points=[];portConstraint=eastwest;strokeColor=inherit;" vertex="1" parent="EiGpjucp3zHQasyni4w2-9">
          <mxGeometry y="81.14285714285714" width="117" height="14" as="geometry" />
        </mxCell>
        <mxCell id="EiGpjucp3zHQasyni4w2-13" value="Activity" style="swimlane;fontStyle=1;align=center;verticalAlign=top;childLayout=stackLayout;horizontal=1;startSize=26.523810250418528;horizontalStack=0;resizeParent=1;resizeParentMax=0;resizeLast=0;collapsible=0;marginBottom=0;" vertex="1" parent="1">
          <mxGeometry x="120" y="417" width="289" height="142.52381025041853" as="geometry" />
        </mxCell>
        <mxCell id="EiGpjucp3zHQasyni4w2-14" value="-String name" style="text;strokeColor=none;fillColor=none;align=left;verticalAlign=top;spacingLeft=4;spacingRight=4;overflow=hidden;rotatable=0;points=[[0,0.5],[1,0.5]];portConstraint=eastwest;" vertex="1" parent="EiGpjucp3zHQasyni4w2-13">
          <mxGeometry y="26.523810250418528" width="289" height="27" as="geometry" />
        </mxCell>
        <mxCell id="EiGpjucp3zHQasyni4w2-15" value="-String description" style="text;strokeColor=none;fillColor=none;align=left;verticalAlign=top;spacingLeft=4;spacingRight=4;overflow=hidden;rotatable=0;points=[[0,0.5],[1,0.5]];portConstraint=eastwest;" vertex="1" parent="EiGpjucp3zHQasyni4w2-13">
          <mxGeometry y="53.52381025041853" width="289" height="27" as="geometry" />
        </mxCell>
        <mxCell id="EiGpjucp3zHQasyni4w2-16" value="-double cost" style="text;strokeColor=none;fillColor=none;align=left;verticalAlign=top;spacingLeft=4;spacingRight=4;overflow=hidden;rotatable=0;points=[[0,0.5],[1,0.5]];portConstraint=eastwest;" vertex="1" parent="EiGpjucp3zHQasyni4w2-13">
          <mxGeometry y="80.52381025041853" width="289" height="27" as="geometry" />
        </mxCell>
        <mxCell id="EiGpjucp3zHQasyni4w2-17" value="-int capacity" style="text;strokeColor=none;fillColor=none;align=left;verticalAlign=top;spacingLeft=4;spacingRight=4;overflow=hidden;rotatable=0;points=[[0,0.5],[1,0.5]];portConstraint=eastwest;" vertex="1" parent="EiGpjucp3zHQasyni4w2-13">
          <mxGeometry y="107.52381025041853" width="289" height="27" as="geometry" />
        </mxCell>
        <mxCell id="EiGpjucp3zHQasyni4w2-18" style="line;strokeWidth=1;fillColor=none;align=left;verticalAlign=middle;spacingTop=-1;spacingLeft=3;spacingRight=3;rotatable=0;labelPosition=right;points=[];portConstraint=eastwest;strokeColor=inherit;" vertex="1" parent="EiGpjucp3zHQasyni4w2-13">
          <mxGeometry y="134.52381025041853" width="289" height="8" as="geometry" />
        </mxCell>
        <mxCell id="EiGpjucp3zHQasyni4w2-21" value="Passenger" style="swimlane;fontStyle=1;align=center;verticalAlign=top;childLayout=stackLayout;horizontal=1;startSize=26.04166603088379;horizontalStack=0;resizeParent=1;resizeParentMax=0;resizeLast=0;collapsible=0;marginBottom=0;" vertex="1" parent="1">
          <mxGeometry x="20" y="660" width="309" height="164.0416660308838" as="geometry" />
        </mxCell>
        <mxCell id="EiGpjucp3zHQasyni4w2-22" value="-String name" style="text;strokeColor=none;fillColor=none;align=left;verticalAlign=top;spacingLeft=4;spacingRight=4;overflow=hidden;rotatable=0;points=[[0,0.5],[1,0.5]];portConstraint=eastwest;" vertex="1" parent="EiGpjucp3zHQasyni4w2-21">
          <mxGeometry y="26.04166603088379" width="309" height="26" as="geometry" />
        </mxCell>
        <mxCell id="EiGpjucp3zHQasyni4w2-23" value="-int number" style="text;strokeColor=none;fillColor=none;align=left;verticalAlign=top;spacingLeft=4;spacingRight=4;overflow=hidden;rotatable=0;points=[[0,0.5],[1,0.5]];portConstraint=eastwest;" vertex="1" parent="EiGpjucp3zHQasyni4w2-21">
          <mxGeometry y="52.04166603088379" width="309" height="26" as="geometry" />
        </mxCell>
        <mxCell id="EiGpjucp3zHQasyni4w2-24" value="-PassengerType type" style="text;strokeColor=none;fillColor=none;align=left;verticalAlign=top;spacingLeft=4;spacingRight=4;overflow=hidden;rotatable=0;points=[[0,0.5],[1,0.5]];portConstraint=eastwest;" vertex="1" parent="EiGpjucp3zHQasyni4w2-21">
          <mxGeometry y="78.04166603088379" width="309" height="26" as="geometry" />
        </mxCell>
        <mxCell id="EiGpjucp3zHQasyni4w2-25" value="-double balance" style="text;strokeColor=none;fillColor=none;align=left;verticalAlign=top;spacingLeft=4;spacingRight=4;overflow=hidden;rotatable=0;points=[[0,0.5],[1,0.5]];portConstraint=eastwest;" vertex="1" parent="EiGpjucp3zHQasyni4w2-21">
          <mxGeometry y="104.04166603088379" width="309" height="26" as="geometry" />
        </mxCell>
        <mxCell id="EiGpjucp3zHQasyni4w2-26" value="-List signedUpActivities" style="text;strokeColor=none;fillColor=none;align=left;verticalAlign=top;spacingLeft=4;spacingRight=4;overflow=hidden;rotatable=0;points=[[0,0.5],[1,0.5]];portConstraint=eastwest;" vertex="1" parent="EiGpjucp3zHQasyni4w2-21">
          <mxGeometry y="130.0416660308838" width="309" height="26" as="geometry" />
        </mxCell>
        <mxCell id="EiGpjucp3zHQasyni4w2-27" style="line;strokeWidth=1;fillColor=none;align=left;verticalAlign=middle;spacingTop=-1;spacingLeft=3;spacingRight=3;rotatable=0;labelPosition=right;points=[];portConstraint=eastwest;strokeColor=inherit;" vertex="1" parent="EiGpjucp3zHQasyni4w2-21">
          <mxGeometry y="156.0416660308838" width="309" height="8" as="geometry" />
        </mxCell>
        <mxCell id="EiGpjucp3zHQasyni4w2-30" value="&lt;&lt;Enumeration&gt;&gt;&#xa;PassengerType" style="swimlane;fontStyle=1;align=center;verticalAlign=top;childLayout=stackLayout;horizontal=1;startSize=42.10000305175781;horizontalStack=0;resizeParent=1;resizeParentMax=0;resizeLast=0;collapsible=0;marginBottom=0;" vertex="1" parent="1">
          <mxGeometry x="324" y="43" width="124" height="140.10000305175782" as="geometry" />
        </mxCell>
        <mxCell id="EiGpjucp3zHQasyni4w2-31" value="STANDARD" style="text;strokeColor=none;fillColor=none;align=left;verticalAlign=top;spacingLeft=4;spacingRight=4;overflow=hidden;rotatable=0;points=[[0,0.5],[1,0.5]];portConstraint=eastwest;" vertex="1" parent="EiGpjucp3zHQasyni4w2-30">
          <mxGeometry y="42.10000305175781" width="124" height="28" as="geometry" />
        </mxCell>
        <mxCell id="EiGpjucp3zHQasyni4w2-32" value="GOLD" style="text;strokeColor=none;fillColor=none;align=left;verticalAlign=top;spacingLeft=4;spacingRight=4;overflow=hidden;rotatable=0;points=[[0,0.5],[1,0.5]];portConstraint=eastwest;" vertex="1" parent="EiGpjucp3zHQasyni4w2-30">
          <mxGeometry y="70.10000305175781" width="124" height="28" as="geometry" />
        </mxCell>
        <mxCell id="EiGpjucp3zHQasyni4w2-33" value="PREMIUM" style="text;strokeColor=none;fillColor=none;align=left;verticalAlign=top;spacingLeft=4;spacingRight=4;overflow=hidden;rotatable=0;points=[[0,0.5],[1,0.5]];portConstraint=eastwest;" vertex="1" parent="EiGpjucp3zHQasyni4w2-30">
          <mxGeometry y="98.10000305175781" width="124" height="28" as="geometry" />
        </mxCell>
        <mxCell id="EiGpjucp3zHQasyni4w2-34" style="line;strokeWidth=1;fillColor=none;align=left;verticalAlign=middle;spacingTop=-1;spacingLeft=3;spacingRight=3;rotatable=0;labelPosition=right;points=[];portConstraint=eastwest;strokeColor=inherit;" vertex="1" parent="EiGpjucp3zHQasyni4w2-30">
          <mxGeometry y="126.10000305175781" width="124" height="14" as="geometry" />
        </mxCell>
        <mxCell id="EiGpjucp3zHQasyni4w2-35" value="" style="curved=1;startArrow=none;endArrow=open;endSize=12;exitX=0.8585666082911786;exitY=0.9982818131594314;entryX=0.49695072011051017;entryY=-0.0032361965734981797;rounded=0;" edge="1" parent="1" source="EiGpjucp3zHQasyni4w2-1" target="EiGpjucp3zHQasyni4w2-9">
          <mxGeometry relative="1" as="geometry">
            <Array as="points">
              <mxPoint x="264" y="239" />
            </Array>
          </mxGeometry>
        </mxCell>
        <mxCell id="EiGpjucp3zHQasyni4w2-36" value="" style="curved=1;startArrow=none;endArrow=open;endSize=12;exitX=0.49695072011051017;exitY=0.9967638034265018;entryX=0.4987655164461235;entryY=-0.0017181868405686212;rounded=0;" edge="1" parent="1" source="EiGpjucp3zHQasyni4w2-9" target="EiGpjucp3zHQasyni4w2-13">
          <mxGeometry relative="1" as="geometry">
            <Array as="points" />
          </mxGeometry>
        </mxCell>
        <mxCell id="EiGpjucp3zHQasyni4w2-37" value="1" style="edgeLabel;resizable=0;labelBackgroundColor=none;fontSize=12;align=right;verticalAlign=top;" vertex="1" parent="EiGpjucp3zHQasyni4w2-36">
          <mxGeometry x="-1" relative="1" as="geometry" />
        </mxCell>
        <mxCell id="EiGpjucp3zHQasyni4w2-38" value="*" style="edgeLabel;resizable=0;labelBackgroundColor=none;fontSize=12;align=left;verticalAlign=bottom;" vertex="1" parent="EiGpjucp3zHQasyni4w2-36">
          <mxGeometry x="1" relative="1" as="geometry" />
        </mxCell>
        <mxCell id="EiGpjucp3zHQasyni4w2-39" value="" style="curved=1;startArrow=none;endArrow=open;endSize=12;exitX=0.1447146417088215;exitY=0.9982818131594314;entryX=0.2633476563630644;entryY=0.0015432569715711805;rounded=0;" edge="1" parent="1" source="EiGpjucp3zHQasyni4w2-1" target="EiGpjucp3zHQasyni4w2-21">
          <mxGeometry relative="1" as="geometry">
            <Array as="points">
              <mxPoint x="85" y="239" />
              <mxPoint x="85" y="635" />
            </Array>
          </mxGeometry>
        </mxCell>
        <mxCell id="EiGpjucp3zHQasyni4w2-40" value="1" style="edgeLabel;resizable=0;labelBackgroundColor=none;fontSize=12;align=right;verticalAlign=top;" vertex="1" parent="EiGpjucp3zHQasyni4w2-39">
          <mxGeometry x="-1" relative="1" as="geometry" />
        </mxCell>
        <mxCell id="EiGpjucp3zHQasyni4w2-41" value="*" style="edgeLabel;resizable=0;labelBackgroundColor=none;fontSize=12;align=left;verticalAlign=bottom;" vertex="1" parent="EiGpjucp3zHQasyni4w2-39">
          <mxGeometry x="1" relative="1" as="geometry" />
        </mxCell>
        <mxCell id="EiGpjucp3zHQasyni4w2-42" value="" style="curved=1;startArrow=none;endArrow=open;endSize=12;exitX=0.4987655164461235;exitY=0.9965636263188627;entryX=0.73553988409001;entryY=0.0015432569715711805;rounded=0;" edge="1" parent="1" source="EiGpjucp3zHQasyni4w2-13" target="EiGpjucp3zHQasyni4w2-21">
          <mxGeometry relative="1" as="geometry">
            <Array as="points">
              <mxPoint x="264" y="635" />
            </Array>
          </mxGeometry>
        </mxCell>
        <mxCell id="EiGpjucp3zHQasyni4w2-43" value="*" style="edgeLabel;resizable=0;labelBackgroundColor=none;fontSize=12;align=left;verticalAlign=bottom;" vertex="1" parent="EiGpjucp3zHQasyni4w2-42">
          <mxGeometry x="1" relative="1" as="geometry" />
        </mxCell>
      </root>
    </mxGraphModel>
  </diagram>
  <diagram id="9g6J2wELE-XeDSXFsS9F" name="Page-3">
    <mxGraphModel grid="1" page="1" gridSize="10" guides="1" tooltips="1" connect="1" arrows="1" fold="1" pageScale="1" pageWidth="850" pageHeight="1100" math="0" shadow="0">
      <root>
        <mxCell id="0" />
        <mxCell id="1" parent="0" />
        <mxCell id="mnXBZtFp0mEqdUFqAHxf-1" value="TravelPackage" style="swimlane;fontStyle=1;align=center;verticalAlign=top;childLayout=stackLayout;horizontal=1;startSize=25.366668701171875;horizontalStack=0;resizeParent=1;resizeParentMax=0;resizeLast=0;collapsible=0;marginBottom=0;" vertex="1" parent="1">
          <mxGeometry x="32" y="20" width="344" height="258.3666687011719" as="geometry" />
        </mxCell>
        <mxCell id="mnXBZtFp0mEqdUFqAHxf-2" value="-String name" style="text;strokeColor=none;fillColor=none;align=left;verticalAlign=top;spacingLeft=4;spacingRight=4;overflow=hidden;rotatable=0;points=[[0,0.5],[1,0.5]];portConstraint=eastwest;" vertex="1" parent="mnXBZtFp0mEqdUFqAHxf-1">
          <mxGeometry y="25.366668701171875" width="344" height="25" as="geometry" />
        </mxCell>
        <mxCell id="mnXBZtFp0mEqdUFqAHxf-3" value="-int capacity" style="text;strokeColor=none;fillColor=none;align=left;verticalAlign=top;spacingLeft=4;spacingRight=4;overflow=hidden;rotatable=0;points=[[0,0.5],[1,0.5]];portConstraint=eastwest;" vertex="1" parent="mnXBZtFp0mEqdUFqAHxf-1">
          <mxGeometry y="50.366668701171875" width="344" height="25" as="geometry" />
        </mxCell>
        <mxCell id="mnXBZtFp0mEqdUFqAHxf-4" value="-List itinerary" style="text;strokeColor=none;fillColor=none;align=left;verticalAlign=top;spacingLeft=4;spacingRight=4;overflow=hidden;rotatable=0;points=[[0,0.5],[1,0.5]];portConstraint=eastwest;" vertex="1" parent="mnXBZtFp0mEqdUFqAHxf-1">
          <mxGeometry y="75.36666870117188" width="344" height="25" as="geometry" />
        </mxCell>
        <mxCell id="mnXBZtFp0mEqdUFqAHxf-5" value="-List passengers" style="text;strokeColor=none;fillColor=none;align=left;verticalAlign=top;spacingLeft=4;spacingRight=4;overflow=hidden;rotatable=0;points=[[0,0.5],[1,0.5]];portConstraint=eastwest;" vertex="1" parent="mnXBZtFp0mEqdUFqAHxf-1">
          <mxGeometry y="100.36666870117188" width="344" height="25" as="geometry" />
        </mxCell>
        <mxCell id="mnXBZtFp0mEqdUFqAHxf-6" style="line;strokeWidth=1;fillColor=none;align=left;verticalAlign=middle;spacingTop=-1;spacingLeft=3;spacingRight=3;rotatable=0;labelPosition=right;points=[];portConstraint=eastwest;strokeColor=inherit;" vertex="1" parent="mnXBZtFp0mEqdUFqAHxf-1">
          <mxGeometry y="125.36666870117188" width="344" height="8" as="geometry" />
        </mxCell>
        <mxCell id="mnXBZtFp0mEqdUFqAHxf-7" value="+TravelPackage(String name, int capacity)" style="text;strokeColor=none;fillColor=none;align=left;verticalAlign=top;spacingLeft=4;spacingRight=4;overflow=hidden;rotatable=0;points=[[0,0.5],[1,0.5]];portConstraint=eastwest;" vertex="1" parent="mnXBZtFp0mEqdUFqAHxf-1">
          <mxGeometry y="133.36666870117188" width="344" height="25" as="geometry" />
        </mxCell>
        <mxCell id="mnXBZtFp0mEqdUFqAHxf-8" value="+void addDestination(Destination destination)" style="text;strokeColor=none;fillColor=none;align=left;verticalAlign=top;spacingLeft=4;spacingRight=4;overflow=hidden;rotatable=0;points=[[0,0.5],[1,0.5]];portConstraint=eastwest;" vertex="1" parent="mnXBZtFp0mEqdUFqAHxf-1">
          <mxGeometry y="158.36666870117188" width="344" height="25" as="geometry" />
        </mxCell>
        <mxCell id="mnXBZtFp0mEqdUFqAHxf-9" value="+void addPassenger(Passenger passenger)" style="text;strokeColor=none;fillColor=none;align=left;verticalAlign=top;spacingLeft=4;spacingRight=4;overflow=hidden;rotatable=0;points=[[0,0.5],[1,0.5]];portConstraint=eastwest;" vertex="1" parent="mnXBZtFp0mEqdUFqAHxf-1">
          <mxGeometry y="183.36666870117188" width="344" height="25" as="geometry" />
        </mxCell>
        <mxCell id="mnXBZtFp0mEqdUFqAHxf-10" value="+void printItinerary()" style="text;strokeColor=none;fillColor=none;align=left;verticalAlign=top;spacingLeft=4;spacingRight=4;overflow=hidden;rotatable=0;points=[[0,0.5],[1,0.5]];portConstraint=eastwest;" vertex="1" parent="mnXBZtFp0mEqdUFqAHxf-1">
          <mxGeometry y="208.36666870117188" width="344" height="25" as="geometry" />
        </mxCell>
        <mxCell id="mnXBZtFp0mEqdUFqAHxf-11" value="+void printPassengerList()" style="text;strokeColor=none;fillColor=none;align=left;verticalAlign=top;spacingLeft=4;spacingRight=4;overflow=hidden;rotatable=0;points=[[0,0.5],[1,0.5]];portConstraint=eastwest;" vertex="1" parent="mnXBZtFp0mEqdUFqAHxf-1">
          <mxGeometry y="233.36666870117188" width="344" height="25" as="geometry" />
        </mxCell>
        <mxCell id="mnXBZtFp0mEqdUFqAHxf-12" value="Destination" style="swimlane;fontStyle=1;align=center;verticalAlign=top;childLayout=stackLayout;horizontal=1;startSize=28.066668701171874;horizontalStack=0;resizeParent=1;resizeParentMax=0;resizeLast=0;collapsible=0;marginBottom=0;" vertex="1" parent="1">
          <mxGeometry x="214" y="332" width="265" height="148.06666870117186" as="geometry" />
        </mxCell>
        <mxCell id="mnXBZtFp0mEqdUFqAHxf-13" value="-String name" style="text;strokeColor=none;fillColor=none;align=left;verticalAlign=top;spacingLeft=4;spacingRight=4;overflow=hidden;rotatable=0;points=[[0,0.5],[1,0.5]];portConstraint=eastwest;" vertex="1" parent="mnXBZtFp0mEqdUFqAHxf-12">
          <mxGeometry y="28.066668701171874" width="265" height="28" as="geometry" />
        </mxCell>
        <mxCell id="mnXBZtFp0mEqdUFqAHxf-14" value="-List activities" style="text;strokeColor=none;fillColor=none;align=left;verticalAlign=top;spacingLeft=4;spacingRight=4;overflow=hidden;rotatable=0;points=[[0,0.5],[1,0.5]];portConstraint=eastwest;" vertex="1" parent="mnXBZtFp0mEqdUFqAHxf-12">
          <mxGeometry y="56.06666870117188" width="265" height="28" as="geometry" />
        </mxCell>
        <mxCell id="mnXBZtFp0mEqdUFqAHxf-15" style="line;strokeWidth=1;fillColor=none;align=left;verticalAlign=middle;spacingTop=-1;spacingLeft=3;spacingRight=3;rotatable=0;labelPosition=right;points=[];portConstraint=eastwest;strokeColor=inherit;" vertex="1" parent="mnXBZtFp0mEqdUFqAHxf-12">
          <mxGeometry y="84.06666870117188" width="265" height="8" as="geometry" />
        </mxCell>
        <mxCell id="mnXBZtFp0mEqdUFqAHxf-16" value="+Destination(String name)" style="text;strokeColor=none;fillColor=none;align=left;verticalAlign=top;spacingLeft=4;spacingRight=4;overflow=hidden;rotatable=0;points=[[0,0.5],[1,0.5]];portConstraint=eastwest;" vertex="1" parent="mnXBZtFp0mEqdUFqAHxf-12">
          <mxGeometry y="92.06666870117188" width="265" height="28" as="geometry" />
        </mxCell>
        <mxCell id="mnXBZtFp0mEqdUFqAHxf-17" value="+void addActivity(Activity activity)" style="text;strokeColor=none;fillColor=none;align=left;verticalAlign=top;spacingLeft=4;spacingRight=4;overflow=hidden;rotatable=0;points=[[0,0.5],[1,0.5]];portConstraint=eastwest;" vertex="1" parent="mnXBZtFp0mEqdUFqAHxf-12">
          <mxGeometry y="120.06666870117188" width="265" height="28" as="geometry" />
        </mxCell>
        <mxCell id="mnXBZtFp0mEqdUFqAHxf-18" value="Activity" style="swimlane;fontStyle=1;align=center;verticalAlign=top;childLayout=stackLayout;horizontal=1;startSize=26.04166603088379;horizontalStack=0;resizeParent=1;resizeParentMax=0;resizeLast=0;collapsible=0;marginBottom=0;" vertex="1" parent="1">
          <mxGeometry x="96" y="530" width="502" height="216.0416660308838" as="geometry" />
        </mxCell>
        <mxCell id="mnXBZtFp0mEqdUFqAHxf-19" value="-String name" style="text;strokeColor=none;fillColor=none;align=left;verticalAlign=top;spacingLeft=4;spacingRight=4;overflow=hidden;rotatable=0;points=[[0,0.5],[1,0.5]];portConstraint=eastwest;" vertex="1" parent="mnXBZtFp0mEqdUFqAHxf-18">
          <mxGeometry y="26.04166603088379" width="502" height="26" as="geometry" />
        </mxCell>
        <mxCell id="mnXBZtFp0mEqdUFqAHxf-20" value="-String description" style="text;strokeColor=none;fillColor=none;align=left;verticalAlign=top;spacingLeft=4;spacingRight=4;overflow=hidden;rotatable=0;points=[[0,0.5],[1,0.5]];portConstraint=eastwest;" vertex="1" parent="mnXBZtFp0mEqdUFqAHxf-18">
          <mxGeometry y="52.04166603088379" width="502" height="26" as="geometry" />
        </mxCell>
        <mxCell id="mnXBZtFp0mEqdUFqAHxf-21" value="-double cost" style="text;strokeColor=none;fillColor=none;align=left;verticalAlign=top;spacingLeft=4;spacingRight=4;overflow=hidden;rotatable=0;points=[[0,0.5],[1,0.5]];portConstraint=eastwest;" vertex="1" parent="mnXBZtFp0mEqdUFqAHxf-18">
          <mxGeometry y="78.04166603088379" width="502" height="26" as="geometry" />
        </mxCell>
        <mxCell id="mnXBZtFp0mEqdUFqAHxf-22" value="-int capacity" style="text;strokeColor=none;fillColor=none;align=left;verticalAlign=top;spacingLeft=4;spacingRight=4;overflow=hidden;rotatable=0;points=[[0,0.5],[1,0.5]];portConstraint=eastwest;" vertex="1" parent="mnXBZtFp0mEqdUFqAHxf-18">
          <mxGeometry y="104.04166603088379" width="502" height="26" as="geometry" />
        </mxCell>
        <mxCell id="mnXBZtFp0mEqdUFqAHxf-23" style="line;strokeWidth=1;fillColor=none;align=left;verticalAlign=middle;spacingTop=-1;spacingLeft=3;spacingRight=3;rotatable=0;labelPosition=right;points=[];portConstraint=eastwest;strokeColor=inherit;" vertex="1" parent="mnXBZtFp0mEqdUFqAHxf-18">
          <mxGeometry y="130.0416660308838" width="502" height="8" as="geometry" />
        </mxCell>
        <mxCell id="mnXBZtFp0mEqdUFqAHxf-24" value="+Activity(String name, String description, double cost, int capacity)" style="text;strokeColor=none;fillColor=none;align=left;verticalAlign=top;spacingLeft=4;spacingRight=4;overflow=hidden;rotatable=0;points=[[0,0.5],[1,0.5]];portConstraint=eastwest;" vertex="1" parent="mnXBZtFp0mEqdUFqAHxf-18">
          <mxGeometry y="138.0416660308838" width="502" height="26" as="geometry" />
        </mxCell>
        <mxCell id="mnXBZtFp0mEqdUFqAHxf-25" value="+boolean signUp(Passenger passenger)" style="text;strokeColor=none;fillColor=none;align=left;verticalAlign=top;spacingLeft=4;spacingRight=4;overflow=hidden;rotatable=0;points=[[0,0.5],[1,0.5]];portConstraint=eastwest;" vertex="1" parent="mnXBZtFp0mEqdUFqAHxf-18">
          <mxGeometry y="164.0416660308838" width="502" height="26" as="geometry" />
        </mxCell>
        <mxCell id="mnXBZtFp0mEqdUFqAHxf-26" value="+boolean hasSpace()" style="text;strokeColor=none;fillColor=none;align=left;verticalAlign=top;spacingLeft=4;spacingRight=4;overflow=hidden;rotatable=0;points=[[0,0.5],[1,0.5]];portConstraint=eastwest;" vertex="1" parent="mnXBZtFp0mEqdUFqAHxf-18">
          <mxGeometry y="190.0416660308838" width="502" height="26" as="geometry" />
        </mxCell>
        <mxCell id="mnXBZtFp0mEqdUFqAHxf-27" value="Passenger" style="swimlane;fontStyle=1;align=center;verticalAlign=top;childLayout=stackLayout;horizontal=1;startSize=25.666668362087673;horizontalStack=0;resizeParent=1;resizeParentMax=0;resizeLast=0;collapsible=0;marginBottom=0;" vertex="1" parent="1">
          <mxGeometry x="20" y="796" width="367" height="241.66666836208768" as="geometry" />
        </mxCell>
        <mxCell id="mnXBZtFp0mEqdUFqAHxf-28" value="-String name" style="text;strokeColor=none;fillColor=none;align=left;verticalAlign=top;spacingLeft=4;spacingRight=4;overflow=hidden;rotatable=0;points=[[0,0.5],[1,0.5]];portConstraint=eastwest;" vertex="1" parent="mnXBZtFp0mEqdUFqAHxf-27">
          <mxGeometry y="25.666668362087673" width="367" height="26" as="geometry" />
        </mxCell>
        <mxCell id="mnXBZtFp0mEqdUFqAHxf-29" value="-int number" style="text;strokeColor=none;fillColor=none;align=left;verticalAlign=top;spacingLeft=4;spacingRight=4;overflow=hidden;rotatable=0;points=[[0,0.5],[1,0.5]];portConstraint=eastwest;" vertex="1" parent="mnXBZtFp0mEqdUFqAHxf-27">
          <mxGeometry y="51.66666836208768" width="367" height="26" as="geometry" />
        </mxCell>
        <mxCell id="mnXBZtFp0mEqdUFqAHxf-30" value="-String type" style="text;strokeColor=none;fillColor=none;align=left;verticalAlign=top;spacingLeft=4;spacingRight=4;overflow=hidden;rotatable=0;points=[[0,0.5],[1,0.5]];portConstraint=eastwest;" vertex="1" parent="mnXBZtFp0mEqdUFqAHxf-27">
          <mxGeometry y="77.66666836208768" width="367" height="26" as="geometry" />
        </mxCell>
        <mxCell id="mnXBZtFp0mEqdUFqAHxf-31" value="-double balance" style="text;strokeColor=none;fillColor=none;align=left;verticalAlign=top;spacingLeft=4;spacingRight=4;overflow=hidden;rotatable=0;points=[[0,0.5],[1,0.5]];portConstraint=eastwest;" vertex="1" parent="mnXBZtFp0mEqdUFqAHxf-27">
          <mxGeometry y="103.66666836208768" width="367" height="26" as="geometry" />
        </mxCell>
        <mxCell id="mnXBZtFp0mEqdUFqAHxf-32" value="-List signedUpActivities" style="text;strokeColor=none;fillColor=none;align=left;verticalAlign=top;spacingLeft=4;spacingRight=4;overflow=hidden;rotatable=0;points=[[0,0.5],[1,0.5]];portConstraint=eastwest;" vertex="1" parent="mnXBZtFp0mEqdUFqAHxf-27">
          <mxGeometry y="129.66666836208768" width="367" height="26" as="geometry" />
        </mxCell>
        <mxCell id="mnXBZtFp0mEqdUFqAHxf-33" style="line;strokeWidth=1;fillColor=none;align=left;verticalAlign=middle;spacingTop=-1;spacingLeft=3;spacingRight=3;rotatable=0;labelPosition=right;points=[];portConstraint=eastwest;strokeColor=inherit;" vertex="1" parent="mnXBZtFp0mEqdUFqAHxf-27">
          <mxGeometry y="155.66666836208768" width="367" height="8" as="geometry" />
        </mxCell>
        <mxCell id="mnXBZtFp0mEqdUFqAHxf-34" value="+Passenger(String name, int number, String type)" style="text;strokeColor=none;fillColor=none;align=left;verticalAlign=top;spacingLeft=4;spacingRight=4;overflow=hidden;rotatable=0;points=[[0,0.5],[1,0.5]];portConstraint=eastwest;" vertex="1" parent="mnXBZtFp0mEqdUFqAHxf-27">
          <mxGeometry y="163.66666836208768" width="367" height="26" as="geometry" />
        </mxCell>
        <mxCell id="mnXBZtFp0mEqdUFqAHxf-35" value="+void signUpForActivity(Activity activity)" style="text;strokeColor=none;fillColor=none;align=left;verticalAlign=top;spacingLeft=4;spacingRight=4;overflow=hidden;rotatable=0;points=[[0,0.5],[1,0.5]];portConstraint=eastwest;" vertex="1" parent="mnXBZtFp0mEqdUFqAHxf-27">
          <mxGeometry y="189.66666836208768" width="367" height="26" as="geometry" />
        </mxCell>
        <mxCell id="mnXBZtFp0mEqdUFqAHxf-36" value="+void printDetails()" style="text;strokeColor=none;fillColor=none;align=left;verticalAlign=top;spacingLeft=4;spacingRight=4;overflow=hidden;rotatable=0;points=[[0,0.5],[1,0.5]];portConstraint=eastwest;" vertex="1" parent="mnXBZtFp0mEqdUFqAHxf-27">
          <mxGeometry y="215.66666836208768" width="367" height="26" as="geometry" />
        </mxCell>
        <mxCell id="mnXBZtFp0mEqdUFqAHxf-37" value="&lt;&lt;Note&gt;&gt;&#xa;Note" style="swimlane;fontStyle=1;align=center;verticalAlign=top;childLayout=stackLayout;horizontal=1;startSize=47.5;horizontalStack=0;resizeParent=1;resizeParentMax=0;resizeLast=0;collapsible=0;marginBottom=0;" vertex="1" parent="1">
          <mxGeometry x="426" y="99" width="328" height="95.5" as="geometry" />
        </mxCell>
        <mxCell id="mnXBZtFp0mEqdUFqAHxf-38" value="PassengerType: STANDARD, GOLD, PREMIUM" style="text;strokeColor=none;fillColor=none;align=left;verticalAlign=top;spacingLeft=4;spacingRight=4;overflow=hidden;rotatable=0;points=[[0,0.5],[1,0.5]];portConstraint=eastwest;" vertex="1" parent="mnXBZtFp0mEqdUFqAHxf-37">
          <mxGeometry y="47.5" width="328" height="32" as="geometry" />
        </mxCell>
        <mxCell id="mnXBZtFp0mEqdUFqAHxf-39" style="line;strokeWidth=1;fillColor=none;align=left;verticalAlign=middle;spacingTop=-1;spacingLeft=3;spacingRight=3;rotatable=0;labelPosition=right;points=[];portConstraint=eastwest;strokeColor=inherit;" vertex="1" parent="mnXBZtFp0mEqdUFqAHxf-37">
          <mxGeometry y="79.5" width="328" height="16" as="geometry" />
        </mxCell>
        <mxCell id="mnXBZtFp0mEqdUFqAHxf-40" value="" style="curved=1;startArrow=none;endArrow=open;endSize=12;exitX=0.8476238620394767;exitY=0.9987278130218273;entryX=0.5000392985793779;entryY=-0.0022521147856841214;rounded=0;" edge="1" parent="1" source="mnXBZtFp0mEqdUFqAHxf-1" target="mnXBZtFp0mEqdUFqAHxf-12">
          <mxGeometry relative="1" as="geometry">
            <Array as="points">
              <mxPoint x="347" y="307" />
            </Array>
          </mxGeometry>
        </mxCell>
        <mxCell id="mnXBZtFp0mEqdUFqAHxf-41" value="" style="curved=1;startArrow=none;endArrow=open;endSize=12;exitX=0.5000392985793779;exitY=1.0000002061998523;entryX=0.4990247293297513;entryY=1.4128508391203703e-7;rounded=0;" edge="1" parent="1" source="mnXBZtFp0mEqdUFqAHxf-12" target="mnXBZtFp0mEqdUFqAHxf-18">
          <mxGeometry relative="1" as="geometry">
            <Array as="points" />
          </mxGeometry>
        </mxCell>
        <mxCell id="mnXBZtFp0mEqdUFqAHxf-42" value="1" style="edgeLabel;resizable=0;labelBackgroundColor=none;fontSize=12;align=right;verticalAlign=top;" vertex="1" parent="mnXBZtFp0mEqdUFqAHxf-41">
          <mxGeometry x="-1" relative="1" as="geometry" />
        </mxCell>
        <mxCell id="mnXBZtFp0mEqdUFqAHxf-43" value="*" style="edgeLabel;resizable=0;labelBackgroundColor=none;fontSize=12;align=left;verticalAlign=bottom;" vertex="1" parent="mnXBZtFp0mEqdUFqAHxf-41">
          <mxGeometry x="1" relative="1" as="geometry" />
        </mxCell>
        <mxCell id="mnXBZtFp0mEqdUFqAHxf-44" value="" style="curved=1;startArrow=none;endArrow=open;endSize=12;exitX=0.15001421935587214;exitY=0.9987278130218273;entryX=0.17821022078562065;entryY=0.001394806546646182;rounded=0;" edge="1" parent="1" source="mnXBZtFp0mEqdUFqAHxf-1" target="mnXBZtFp0mEqdUFqAHxf-27">
          <mxGeometry relative="1" as="geometry">
            <Array as="points">
              <mxPoint x="61" y="307" />
              <mxPoint x="61" y="771" />
            </Array>
          </mxGeometry>
        </mxCell>
        <mxCell id="mnXBZtFp0mEqdUFqAHxf-45" value="1" style="edgeLabel;resizable=0;labelBackgroundColor=none;fontSize=12;align=right;verticalAlign=top;" vertex="1" parent="mnXBZtFp0mEqdUFqAHxf-44">
          <mxGeometry x="-1" relative="1" as="geometry" />
        </mxCell>
        <mxCell id="mnXBZtFp0mEqdUFqAHxf-46" value="*" style="edgeLabel;resizable=0;labelBackgroundColor=none;fontSize=12;align=left;verticalAlign=bottom;" vertex="1" parent="mnXBZtFp0mEqdUFqAHxf-44">
          <mxGeometry x="1" relative="1" as="geometry" />
        </mxCell>
        <mxCell id="mnXBZtFp0mEqdUFqAHxf-47" value="" style="curved=1;startArrow=none;endArrow=open;endSize=12;exitX=0.4990247293297513;exitY=1.0015433276141132;entryX=0.8223006783969407;entryY=0.001394806546646182;rounded=0;" edge="1" parent="1" source="mnXBZtFp0mEqdUFqAHxf-18" target="mnXBZtFp0mEqdUFqAHxf-27">
          <mxGeometry relative="1" as="geometry">
            <Array as="points">
              <mxPoint x="347" y="771" />
            </Array>
          </mxGeometry>
        </mxCell>
        <mxCell id="mnXBZtFp0mEqdUFqAHxf-48" value="*" style="edgeLabel;resizable=0;labelBackgroundColor=none;fontSize=12;align=left;verticalAlign=bottom;" vertex="1" parent="mnXBZtFp0mEqdUFqAHxf-47">
          <mxGeometry x="1" relative="1" as="geometry" />
        </mxCell>
      </root>
    </mxGraphModel>
  </diagram>
</mxfile>
